<svg width="25" height="20" viewBox="0 0 25 20" fill="none" xmlns="http://www.w3.org/2000/svg">
<path d="M7.832 8.83119C7.87508 8.83237 7.91791 8.84231 7.957 8.86048C7.99602 8.87865 8.0309 8.90451 8.05953 8.93666L12.2236 13.6202C12.3469 13.7589 12.5082 13.8585 12.6875 13.9064C12.8666 13.9541 13.0556 13.9485 13.2314 13.8898L16.2412 12.8869C16.2995 12.8674 16.3624 12.8653 16.4218 12.881C16.4812 12.8967 16.535 12.9291 16.5761 12.9747L21.7568 18.674C21.8881 18.8179 21.8593 19.046 21.6865 19.1359C21.2216 19.3799 20.7125 19.529 20.1894 19.5744L18.2812 19.7404C14.3009 20.0866 10.2996 20.0866 6.3193 19.7404L4.41207 19.5744C3.52501 19.4971 2.68892 19.1235 2.04 18.5138C1.39146 17.9042 0.967248 17.0942 0.834925 16.214L0.790004 15.9103C0.783319 15.8624 0.78841 15.8136 0.803675 15.7677C0.81902 15.7217 0.844664 15.6791 0.878871 15.6447L7.59957 8.92396C7.62984 8.89352 7.66619 8.86965 7.70602 8.85365C7.7459 8.8377 7.78906 8.83007 7.832 8.83119ZM6.32125 1.18666C10.3003 0.840786 14.3022 0.840767 18.2812 1.18666L20.1884 1.35365C21.0755 1.43088 21.9116 1.80447 22.5605 2.41419C23.2093 3.0239 23.6343 3.83451 23.7666 4.71498C24.3396 8.52643 24.3396 12.4025 23.7666 16.214C23.716 16.5474 23.6243 16.8668 23.498 17.1661C23.4146 17.3645 23.1573 17.3947 23.0107 17.2355L17.4238 11.09C17.3003 10.9542 17.1404 10.8571 16.9629 10.8107C16.7853 10.7643 16.5979 10.7703 16.4238 10.8283L13.2256 11.8947L8.58688 6.67591C8.50108 6.57938 8.39629 6.50106 8.27926 6.44642C8.1623 6.39183 8.03523 6.36234 7.90621 6.35853C7.77711 6.35474 7.64832 6.37726 7.52828 6.42494C7.40829 6.47262 7.29926 6.54455 7.20797 6.63587L0.998988 12.8449C0.956834 12.8882 0.902708 12.9186 0.843714 12.9318C0.784672 12.9449 0.722588 12.9404 0.66598 12.9191C0.609471 12.8977 0.560004 12.8604 0.524379 12.8117C0.488739 12.7628 0.468868 12.7041 0.465785 12.6437C0.316395 9.99481 0.439262 7.33756 0.833949 4.714C0.966206 3.83361 1.39127 3.0229 2.04 2.41322C2.68892 1.8035 3.52501 1.4299 4.41207 1.35267L6.32125 1.18666ZM16.7226 4.77845C16.2201 4.77852 15.7382 4.97782 15.3828 5.33314C15.0273 5.6886 14.8271 6.17127 14.8271 6.67396C14.8272 7.17648 15.0274 7.65846 15.3828 8.0138C15.7382 8.36913 16.2201 8.56843 16.7226 8.56849C17.2253 8.56849 17.708 8.36926 18.0634 8.0138C18.4187 7.65847 18.618 7.17642 18.6181 6.67396C18.6181 6.17133 18.4188 5.68858 18.0634 5.33314C17.708 4.97768 17.2253 4.77845 16.7226 4.77845Z" fill="#C7C7C7"/>
</svg>
